<svg width="2750" height="1000" viewBox="0 0 2750 1000" fill="none" xmlns="http://www.w3.org/2000/svg">
<path d="M534.211 190.302C693.656 12.0799 977.83 310.855 813.311 475.371C802.226 486.456 722.524 530.964 638.5 545C614.313 549.04 600.326 544.842 593 528.5C586.5 514 593 483.722 602.681 481.5C682.437 463.196 728.497 456.057 764.231 420.323C848.648 335.906 707.368 143.464 586.275 242.366C490.527 320.568 477.136 364.308 503.648 501.67L435.408 520.406C375.593 313.926 488.165 236.348 534.211 190.302Z" fill="url(#paint0_linear_5_22)"/>
<path d="M472.629 810.538C313.184 988.76 29.0098 689.985 193.529 525.468C204.614 514.383 283.728 460.018 387.319 465.321C411.809 466.575 416.718 481.68 420.565 499.17C425.206 520.269 404.364 534.389 392.269 534.617C336.054 535.678 278.343 544.782 242.608 580.517C158.191 664.934 299.472 857.376 420.565 758.474C516.313 680.272 529.704 636.532 503.192 499.17L571.431 480.434C631.247 686.914 518.675 764.492 472.629 810.538Z" fill="url(#paint1_linear_5_22)"/>
<path d="M1163.8 723.2C1130.6 723.2 1098.4 718.8 1067.2 710C1036.4 700.8 1011.6 689 992.8 674.6L1025.8 601.4C1043.8 614.6 1065.2 625.2 1090 633.2C1114.8 641.2 1139.6 645.2 1164.4 645.2C1192 645.2 1212.4 641.2 1225.6 633.2C1238.8 624.8 1245.4 613.8 1245.4 600.2C1245.4 590.2 1241.4 582 1233.4 575.6C1225.8 568.8 1215.8 563.4 1203.4 559.4C1191.4 555.4 1175 551 1154.2 546.2C1122.2 538.6 1096 531 1075.6 523.4C1055.2 515.8 1037.6 503.6 1022.8 486.8C1008.4 470 1001.2 447.6 1001.2 419.6C1001.2 395.2 1007.8 373.2 1021 353.6C1034.2 333.6 1054 317.8 1080.4 306.2C1107.2 294.6 1139.8 288.8 1178.2 288.8C1205 288.8 1231.2 292 1256.8 298.4C1282.4 304.8 1304.8 314 1324 326L1294 399.8C1255.2 377.8 1216.4 366.8 1177.6 366.8C1150.4 366.8 1130.2 371.2 1117 380C1104.2 388.8 1097.8 400.4 1097.8 414.8C1097.8 429.2 1105.2 440 1120 447.2C1135.2 454 1158.2 460.8 1189 467.6C1221 475.2 1247.2 482.8 1267.6 490.4C1288 498 1305.4 510 1319.8 526.4C1334.6 542.8 1342 565 1342 593C1342 617 1335.2 639 1321.6 659C1308.4 678.6 1288.4 694.2 1261.6 705.8C1234.8 717.4 1202.2 723.2 1163.8 723.2ZM1727.02 393.2V662C1727.02 721.2 1712.02 765.2 1682.02 794C1652.02 822.8 1608.42 837.2 1551.22 837.2C1520.82 837.2 1492.02 833.4 1464.82 825.8C1438.02 818.2 1415.42 807.2 1397.02 792.8L1434.22 725.6C1447.82 736.8 1464.42 745.6 1484.02 752C1503.62 758.4 1523.42 761.6 1543.42 761.6C1574.62 761.6 1597.42 754.4 1611.82 740C1626.22 725.6 1633.42 703.6 1633.42 674V663.2C1621.42 675.2 1607.22 684.4 1590.82 690.8C1574.42 697.2 1556.82 700.4 1538.02 700.4C1495.62 700.4 1462.02 688.4 1437.22 664.4C1412.42 640 1400.02 603.6 1400.02 555.2V393.2H1493.62V541.4C1493.62 593.8 1515.42 620 1559.02 620C1581.42 620 1599.42 612.8 1613.02 598.4C1626.62 583.6 1633.42 561.8 1633.42 533V393.2H1727.02ZM2009.93 388.4C2049.93 388.4 2082.13 400.4 2106.53 424.4C2131.33 448.4 2143.73 484 2143.73 531.2V716H2050.13V545.6C2050.13 520 2044.53 501 2033.33 488.6C2022.13 475.8 2005.93 469.4 1984.73 469.4C1961.13 469.4 1942.33 476.8 1928.33 491.6C1914.33 506 1907.33 527.6 1907.33 556.4V716H1813.73V393.2H1903.13V431C1915.53 417.4 1930.93 407 1949.33 399.8C1967.73 392.2 1987.93 388.4 2009.93 388.4ZM2367.18 589.4L2322.18 633.8V716H2228.58V270.8H2322.18V522.8L2458.98 393.2H2570.58L2436.18 530L2582.58 716H2469.18L2367.18 589.4Z" fill="#0057FF"/>
<defs>
<linearGradient id="paint0_linear_5_22" x1="505.5" y1="501.5" x2="814.5" y2="229.5" gradientUnits="userSpaceOnUse">
<stop stop-color="#44C2FD"/>
<stop offset="1" stop-color="#0057FF"/>
</linearGradient>
<linearGradient id="paint1_linear_5_22" x1="505.5" y1="501.5" x2="201" y2="778.5" gradientUnits="userSpaceOnUse">
<stop stop-color="#44C2FD"/>
<stop offset="1" stop-color="#0057FF"/>
</linearGradient>
</defs>
</svg>
