<svg width="1000" height="1000" viewBox="0 0 1000 1000" fill="none" xmlns="http://www.w3.org/2000/svg">
<rect width="1000" height="1000" rx="250" fill="url(#paint0_linear_19_2)"/>
<path d="M531.211 190.302C690.656 12.0799 974.83 310.855 810.311 475.371C799.226 486.456 719.524 530.964 635.5 545C611.313 549.04 597.326 544.842 590 528.5C583.5 514 590 483.722 599.681 481.5C679.437 463.196 725.497 456.057 761.231 420.323C845.648 335.906 704.368 143.464 583.275 242.366C487.527 320.568 474.136 364.308 500.648 501.67L432.408 520.406C372.593 313.926 485.165 236.348 531.211 190.302Z" fill="#F7F9FC"/>
<path d="M469.629 810.538C310.184 988.76 26.0098 689.985 190.529 525.468C201.614 514.383 280.728 460.018 384.319 465.321C408.809 466.575 413.718 481.68 417.565 499.17C422.206 520.269 401.364 534.389 389.269 534.617C333.054 535.678 275.343 544.782 239.608 580.517C155.191 664.934 296.472 857.376 417.565 758.474C513.313 680.272 526.704 636.532 500.192 499.17L568.431 480.434C628.247 686.914 515.675 764.492 469.629 810.538Z" fill="#F7F9FC"/>
<defs>
<linearGradient id="paint0_linear_19_2" x1="1000" y1="-3.00773e-05" x2="-4.5712" y2="995.387" gradientUnits="userSpaceOnUse">
<stop stop-color="#44C2FD"/>
<stop offset="1" stop-color="#0057FF"/>
</linearGradient>
</defs>
</svg>
