<svg width="2750" height="1000" viewBox="0 0 2750 1000" fill="none" xmlns="http://www.w3.org/2000/svg">
<path d="M524.211 190.302C683.656 12.0799 967.83 310.855 803.311 475.371C792.226 486.456 712.524 530.964 628.5 545C604.313 549.04 590.326 544.842 583 528.5C576.5 514 583 483.722 592.681 481.5C672.437 463.196 718.497 456.057 754.231 420.323C838.648 335.906 697.368 143.464 576.275 242.366C480.527 320.568 467.136 364.308 493.648 501.67L425.408 520.406C365.593 313.926 478.165 236.348 524.211 190.302Z" fill="#F7F9FC"/>
<path d="M462.629 810.538C303.184 988.76 19.0098 689.985 183.529 525.468C194.614 514.383 273.728 460.018 377.319 465.321C401.809 466.575 406.718 481.68 410.565 499.17C415.206 520.269 394.364 534.389 382.269 534.617C326.054 535.678 268.343 544.782 232.608 580.517C148.191 664.934 289.472 857.376 410.565 758.474C506.313 680.272 519.704 636.532 493.192 499.17L561.431 480.434C621.247 686.914 508.675 764.492 462.629 810.538Z" fill="#F7F9FC"/>
<path d="M1154.8 723.2C1121.6 723.2 1089.4 718.8 1058.2 710C1027.4 700.8 1002.6 689 983.8 674.6L1016.8 601.4C1034.8 614.6 1056.2 625.2 1081 633.2C1105.8 641.2 1130.6 645.2 1155.4 645.2C1183 645.2 1203.4 641.2 1216.6 633.2C1229.8 624.8 1236.4 613.8 1236.4 600.2C1236.4 590.2 1232.4 582 1224.4 575.6C1216.8 568.8 1206.8 563.4 1194.4 559.4C1182.4 555.4 1166 551 1145.2 546.2C1113.2 538.6 1087 531 1066.6 523.4C1046.2 515.8 1028.6 503.6 1013.8 486.8C999.4 470 992.2 447.6 992.2 419.6C992.2 395.2 998.8 373.2 1012 353.6C1025.2 333.6 1045 317.8 1071.4 306.2C1098.2 294.6 1130.8 288.8 1169.2 288.8C1196 288.8 1222.2 292 1247.8 298.4C1273.4 304.8 1295.8 314 1315 326L1285 399.8C1246.2 377.8 1207.4 366.8 1168.6 366.8C1141.4 366.8 1121.2 371.2 1108 380C1095.2 388.8 1088.8 400.4 1088.8 414.8C1088.8 429.2 1096.2 440 1111 447.2C1126.2 454 1149.2 460.8 1180 467.6C1212 475.2 1238.2 482.8 1258.6 490.4C1279 498 1296.4 510 1310.8 526.4C1325.6 542.8 1333 565 1333 593C1333 617 1326.2 639 1312.6 659C1299.4 678.6 1279.4 694.2 1252.6 705.8C1225.8 717.4 1193.2 723.2 1154.8 723.2ZM1718.02 393.2V662C1718.02 721.2 1703.02 765.2 1673.02 794C1643.02 822.8 1599.42 837.2 1542.22 837.2C1511.82 837.2 1483.02 833.4 1455.82 825.8C1429.02 818.2 1406.42 807.2 1388.02 792.8L1425.22 725.6C1438.82 736.8 1455.42 745.6 1475.02 752C1494.62 758.4 1514.42 761.6 1534.42 761.6C1565.62 761.6 1588.42 754.4 1602.82 740C1617.22 725.6 1624.42 703.6 1624.42 674V663.2C1612.42 675.2 1598.22 684.4 1581.82 690.8C1565.42 697.2 1547.82 700.4 1529.02 700.4C1486.62 700.4 1453.02 688.4 1428.22 664.4C1403.42 640 1391.02 603.6 1391.02 555.2V393.2H1484.62V541.4C1484.62 593.8 1506.42 620 1550.02 620C1572.42 620 1590.42 612.8 1604.02 598.4C1617.62 583.6 1624.42 561.8 1624.42 533V393.2H1718.02ZM2000.93 388.4C2040.93 388.4 2073.13 400.4 2097.53 424.4C2122.33 448.4 2134.73 484 2134.73 531.2V716H2041.13V545.6C2041.13 520 2035.53 501 2024.33 488.6C2013.13 475.8 1996.93 469.4 1975.73 469.4C1952.13 469.4 1933.33 476.8 1919.33 491.6C1905.33 506 1898.33 527.6 1898.33 556.4V716H1804.73V393.2H1894.13V431C1906.53 417.4 1921.93 407 1940.33 399.8C1958.73 392.2 1978.93 388.4 2000.93 388.4ZM2358.18 589.4L2313.18 633.8V716H2219.58V270.8H2313.18V522.8L2449.98 393.2H2561.58L2427.18 530L2573.58 716H2460.18L2358.18 589.4Z" fill="#F7F9FC"/>
</svg>
